<svg width="20" height="20" viewBox="0 0 20 20" fill="none" xmlns="http://www.w3.org/2000/svg">
<mask id="mask0_568_4428" style="mask-type:alpha" maskUnits="userSpaceOnUse" x="0" y="0" width="20" height="20">
<rect width="20" height="20" fill="#D9D9D9"/>
</mask>
<g mask="url(#mask0_568_4428)">
<path d="M10.4377 12.6041L12.5002 10.5208C12.6529 10.368 12.7293 10.1944 12.7293 9.99992C12.7293 9.80547 12.6529 9.63186 12.5002 9.47908L10.4168 7.37492C10.3057 7.26381 10.1668 7.21159 10.0002 7.21825C9.8335 7.22547 9.68766 7.28464 9.56266 7.39575C9.45155 7.50686 9.396 7.6527 9.396 7.83325C9.396 8.01381 9.45155 8.15964 9.56266 8.27075L10.6668 9.37492H7.47933C7.31266 9.37492 7.17044 9.43381 7.05266 9.55159C6.93433 9.66992 6.87516 9.81936 6.87516 9.99992C6.87516 10.1805 6.93433 10.3296 7.05266 10.4474C7.17044 10.5658 7.31961 10.6249 7.50016 10.6249H10.6668L9.54183 11.7499C9.43072 11.861 9.3785 11.9999 9.38516 12.1666C9.39239 12.3333 9.45155 12.4791 9.56266 12.6041C9.68766 12.7152 9.83711 12.7708 10.011 12.7708C10.1843 12.7708 10.3266 12.7152 10.4377 12.6041ZM10.0002 17.9166C8.90294 17.9166 7.87183 17.7083 6.90683 17.2916C5.94127 16.8749 5.10433 16.3124 4.396 15.6041C3.68766 14.8958 3.12516 14.0588 2.7085 13.0933C2.29183 12.1283 2.0835 11.0971 2.0835 9.99992C2.0835 8.9027 2.29183 7.87131 2.7085 6.90575C3.12516 5.94075 3.68766 5.10409 4.396 4.39575C5.10433 3.68742 5.94127 3.12492 6.90683 2.70825C7.87183 2.29159 8.90294 2.08325 10.0002 2.08325C11.0974 2.08325 12.1288 2.29159 13.0943 2.70825C14.0593 3.12492 14.896 3.68742 15.6043 4.39575C16.3127 5.10409 16.8752 5.94075 17.2918 6.90575C17.7085 7.87131 17.9168 8.9027 17.9168 9.99992C17.9168 11.0971 17.7085 12.1283 17.2918 13.0933C16.8752 14.0588 16.3127 14.8958 15.6043 15.6041C14.896 16.3124 14.0593 16.8749 13.0943 17.2916C12.1288 17.7083 11.0974 17.9166 10.0002 17.9166ZM10.0002 16.6666C11.8474 16.6666 13.4204 16.0174 14.7193 14.7191C16.0177 13.4202 16.6668 11.8471 16.6668 9.99992C16.6668 8.1527 16.0177 6.57964 14.7193 5.28075C13.4204 3.98242 11.8474 3.33325 10.0002 3.33325C8.15294 3.33325 6.58016 3.98242 5.28183 5.28075C3.98294 6.57964 3.3335 8.1527 3.3335 9.99992C3.3335 11.8471 3.98294 13.4202 5.28183 14.7191C6.58016 16.0174 8.15294 16.6666 10.0002 16.6666Z" fill="#0FA76F"/>
</g>
</svg>
