<svg width="24" height="24" viewBox="0 0 24 24" fill="none" xmlns="http://www.w3.org/2000/svg">
<mask id="mask0_547_20381" style="mask-type:alpha" maskUnits="userSpaceOnUse" x="0" y="0" width="24" height="24">
<rect width="24" height="24" fill="#D9D9D9"/>
</mask>
<g mask="url(#mask0_547_20381)">
<path d="M6 22C5.45 22 4.97933 21.8043 4.588 21.413C4.196 21.021 4 20.55 4 20V4C4 3.45 4.196 2.979 4.588 2.587C4.97933 2.19567 5.45 2 6 2H14L20 8V11.1L12 19.075V22H6ZM14 22V19.875L19.15 14.7L21.3 16.8L16.125 22H14ZM22.025 16.1L19.9 13.975L20.6 13.275C20.8 13.075 21.0417 12.975 21.325 12.975C21.6083 12.975 21.8417 13.075 22.025 13.275L22.725 14C22.9083 14.2 23 14.4373 23 14.712C23 14.9873 22.9083 15.2167 22.725 15.4L22.025 16.1ZM13 9H18L13 4V9Z" fill="#0F9EA7"/>
</g>
</svg>
