<svg width="21" height="20" viewBox="0 0 21 20" fill="none" xmlns="http://www.w3.org/2000/svg">
<mask id="mask0_568_5930" style="mask-type:alpha" maskUnits="userSpaceOnUse" x="0" y="0" width="21" height="20">
<rect x="0.5" width="20" height="20" fill="#D9D9D9"/>
</mask>
<g mask="url(#mask0_568_5930)">
<path d="M5.91667 16.25C4.76389 16.25 3.78111 15.8506 2.96833 15.0517C2.15611 14.2533 1.75 13.2778 1.75 12.125C1.75 11.0972 2.07639 10.1875 2.72917 9.39583C3.38194 8.60417 4.21528 8.13889 5.22917 8C5.40972 6.98611 5.96194 6.03472 6.88583 5.14583C7.80917 4.25694 8.80556 3.8125 9.875 3.8125C10.2222 3.8125 10.5172 3.9375 10.76 4.1875C11.0033 4.4375 11.125 4.72917 11.125 5.0625V10.625L12.6458 9.125L13.5208 10L10.5 13.0208L7.47917 10L8.35417 9.125L9.875 10.625V5.0625C8.81944 5.1875 7.96528 5.67361 7.3125 6.52083C6.65972 7.36806 6.33333 8.25 6.33333 9.16667H5.91667C5.11111 9.16667 4.42361 9.45139 3.85417 10.0208C3.28472 10.5903 3 11.2778 3 12.0833C3 12.8889 3.28472 13.5764 3.85417 14.1458C4.42361 14.7153 5.11111 15 5.91667 15H15.9167C16.5 15 16.9931 14.7986 17.3958 14.3958C17.7986 13.9931 18 13.5 18 12.9167C18 12.3333 17.7986 11.8403 17.3958 11.4375C16.9931 11.0347 16.5 10.8333 15.9167 10.8333H14.6667V9.16667C14.6667 8.48611 14.5139 7.8575 14.2083 7.28083C13.9028 6.70472 13.5 6.22222 13 5.83333V4.375C13.9028 4.83333 14.6144 5.49306 15.135 6.35417C15.6561 7.21528 15.9167 8.15278 15.9167 9.16667V9.58333H16.1667C17.0556 9.65278 17.7917 10.0069 18.375 10.6458C18.9583 11.2847 19.25 12.0417 19.25 12.9167C19.25 13.8472 18.9269 14.6353 18.2808 15.2808C17.6353 15.9269 16.8472 16.25 15.9167 16.25H5.91667Z" fill="#0FA76F"/>
</g>
</svg>
