<svg width="24" height="24" viewBox="0 0 24 24" fill="none" xmlns="http://www.w3.org/2000/svg">
<mask id="mask0_568_1634" style="mask-type:alpha" maskUnits="userSpaceOnUse" x="0" y="0" width="24" height="24">
<rect width="24" height="24" fill="#D9D9D9"/>
</mask>
<g mask="url(#mask0_568_1634)">
<path d="M5.1499 19H6.3999L15.6499 9.74995L14.4249 8.49995L5.1499 17.775V19ZM18.8499 8.64995L15.4749 5.29995L16.7999 3.99995C17.0832 3.71662 17.4376 3.57495 17.8629 3.57495C18.2876 3.57495 18.6416 3.71662 18.9249 3.99995L20.1499 5.22495C20.4332 5.52495 20.5832 5.87895 20.5999 6.28695C20.6166 6.69562 20.4749 7.04162 20.1749 7.32495L18.8499 8.64995ZM4.5499 20.5C4.2999 20.5 4.08757 20.4126 3.9129 20.238C3.73757 20.0626 3.6499 19.85 3.6499 19.6V17.5C3.6499 17.3833 3.6709 17.271 3.7129 17.163C3.75424 17.0543 3.8249 16.95 3.9249 16.85L14.3999 6.37495L17.7749 9.74995L7.2999 20.225C7.1999 20.325 7.0959 20.396 6.9879 20.438C6.87924 20.4793 6.76657 20.5 6.6499 20.5H4.5499ZM15.0249 9.12495L14.4249 8.49995L15.6499 9.74995L15.0249 9.12495Z" fill="#686868"/>
</g>
</svg>
