<svg width="18" height="18" viewBox="0 0 18 18" fill="none" xmlns="http://www.w3.org/2000/svg">
<mask id="mask0_568_5366" style="mask-type:alpha" maskUnits="userSpaceOnUse" x="0" y="0" width="18" height="18">
<rect width="18" height="18" fill="#D9D9D9"/>
</mask>
<g mask="url(#mask0_568_5366)">
<path d="M8.25 13.3125C8.0875 13.3125 7.95325 13.2595 7.84725 13.1535C7.74075 13.047 7.6875 12.9125 7.6875 12.75C7.6875 12.5875 7.74075 12.453 7.84725 12.3465C7.95325 12.2405 8.0875 12.1875 8.25 12.1875H9.75C9.9125 12.1875 10.047 12.2405 10.1535 12.3465C10.2595 12.453 10.3125 12.5875 10.3125 12.75C10.3125 12.9125 10.2595 13.047 10.1535 13.1535C10.047 13.2595 9.9125 13.3125 9.75 13.3125H8.25ZM3 5.53125C2.8375 5.53125 2.70325 5.475 2.59725 5.3625C2.49075 5.25 2.4375 5.11875 2.4375 4.96875C2.4375 4.80625 2.49075 4.672 2.59725 4.566C2.70325 4.4595 2.8375 4.40625 3 4.40625H15C15.1625 4.40625 15.297 4.4595 15.4035 4.566C15.5095 4.672 15.5625 4.80625 15.5625 4.96875C15.5625 5.11875 15.5095 5.25 15.4035 5.3625C15.297 5.475 15.1625 5.53125 15 5.53125H3ZM5.25 9.4125C5.0875 9.4125 4.95325 9.35925 4.84725 9.25275C4.74075 9.14675 4.6875 9.0125 4.6875 8.85C4.6875 8.7 4.74075 8.56875 4.84725 8.45625C4.95325 8.34375 5.0875 8.2875 5.25 8.2875H12.75C12.9125 8.2875 13.047 8.34375 13.1535 8.45625C13.2595 8.56875 13.3125 8.7 13.3125 8.85C13.3125 9.0125 13.2595 9.14675 13.1535 9.25275C13.047 9.35925 12.9125 9.4125 12.75 9.4125H5.25Z" fill="#333333"/>
</g>
</svg>
