<svg width="20" height="21" viewBox="0 0 20 21" fill="none" xmlns="http://www.w3.org/2000/svg">
<mask id="mask0_568_5395" style="mask-type:alpha" maskUnits="userSpaceOnUse" x="0" y="0" width="20" height="21">
<rect y="0.5" width="20" height="20" fill="#D9D9D9"/>
</mask>
<g mask="url(#mask0_568_5395)">
<path d="M3.33325 15.1875C3.1527 15.1875 3.00353 15.1286 2.88575 15.0108C2.76742 14.8925 2.70825 14.7431 2.70825 14.5625C2.70825 14.3958 2.76742 14.25 2.88575 14.125C3.00353 14 3.1527 13.9375 3.33325 13.9375H16.6666C16.8471 13.9375 16.9966 14 17.1149 14.125C17.2327 14.25 17.2916 14.3958 17.2916 14.5625C17.2916 14.7431 17.2327 14.8925 17.1149 15.0108C16.9966 15.1286 16.8471 15.1875 16.6666 15.1875H3.33325ZM3.33325 11.125C3.1527 11.125 3.00353 11.0658 2.88575 10.9475C2.76742 10.8297 2.70825 10.6806 2.70825 10.5C2.70825 10.3194 2.76742 10.17 2.88575 10.0517C3.00353 9.93389 3.1527 9.875 3.33325 9.875H16.6666C16.8471 9.875 16.9966 9.93389 17.1149 10.0517C17.2327 10.17 17.2916 10.3194 17.2916 10.5C17.2916 10.6806 17.2327 10.8297 17.1149 10.9475C16.9966 11.0658 16.8471 11.125 16.6666 11.125H3.33325ZM3.33325 7.0625C3.1527 7.0625 3.00353 7 2.88575 6.875C2.76742 6.75 2.70825 6.60417 2.70825 6.4375C2.70825 6.25694 2.76742 6.10778 2.88575 5.99C3.00353 5.87167 3.1527 5.8125 3.33325 5.8125H16.6666C16.8471 5.8125 16.9966 5.87167 17.1149 5.99C17.2327 6.10778 17.2916 6.25694 17.2916 6.4375C17.2916 6.60417 17.2327 6.75 17.1149 6.875C16.9966 7 16.8471 7.0625 16.6666 7.0625H3.33325Z" fill="#1C1B1F"/>
</g>
</svg>
