<svg width="20" height="21" viewBox="0 0 20 21" fill="none" xmlns="http://www.w3.org/2000/svg">
<mask id="mask0_568_2855" style="mask-type:alpha" maskUnits="userSpaceOnUse" x="0" y="0" width="20" height="21">
<rect y="0.5" width="20" height="20" fill="#D9D9D9"/>
</mask>
<g mask="url(#mask0_568_2855)">
<path d="M3.375 15.1875C3.19444 15.1875 3.04528 15.1286 2.9275 15.0108C2.80917 14.8925 2.75 14.7431 2.75 14.5625C2.75 14.3958 2.80917 14.25 2.9275 14.125C3.04528 14 3.19444 13.9375 3.375 13.9375H12.5417C12.7222 13.9375 12.8717 14 12.99 14.125C13.1078 14.25 13.1667 14.3958 13.1667 14.5625C13.1667 14.7431 13.1078 14.8925 12.99 15.0108C12.8717 15.1286 12.7222 15.1875 12.5417 15.1875H3.375ZM3.375 11.125C3.19444 11.125 3.04528 11.0658 2.9275 10.9475C2.80917 10.8297 2.75 10.6806 2.75 10.5C2.75 10.3194 2.80917 10.17 2.9275 10.0517C3.04528 9.93389 3.19444 9.875 3.375 9.875H10.0417C10.2222 9.875 10.3717 9.93389 10.49 10.0517C10.6078 10.17 10.6667 10.3194 10.6667 10.5C10.6667 10.6806 10.6078 10.8297 10.49 10.9475C10.3717 11.0658 10.2222 11.125 10.0417 11.125H3.375ZM3.375 7.0625C3.19444 7.0625 3.04528 7 2.9275 6.875C2.80917 6.75 2.75 6.60417 2.75 6.4375C2.75 6.25694 2.80917 6.10778 2.9275 5.99C3.04528 5.87167 3.19444 5.8125 3.375 5.8125H12.5417C12.7222 5.8125 12.8717 5.87167 12.99 5.99C13.1078 6.10778 13.1667 6.25694 13.1667 6.4375C13.1667 6.60417 13.1078 6.75 12.99 6.875C12.8717 7 12.7222 7.0625 12.5417 7.0625H3.375ZM14.25 10.5L16.8125 13.0625C16.9236 13.1736 16.9828 13.3161 16.99 13.49C16.9967 13.6633 16.9375 13.8125 16.8125 13.9375C16.6875 14.0625 16.5417 14.125 16.375 14.125C16.2083 14.125 16.0625 14.0625 15.9375 13.9375L13.0208 11.0208C12.8681 10.8681 12.7917 10.6944 12.7917 10.5C12.7917 10.3056 12.8681 10.1319 13.0208 9.97917L15.9375 7.0625C16.0486 6.95139 16.1911 6.89222 16.365 6.885C16.5383 6.87833 16.6875 6.9375 16.8125 7.0625C16.9375 7.1875 17 7.33333 17 7.5C17 7.66667 16.9375 7.8125 16.8125 7.9375L14.25 10.5Z" fill="#1C1B1F"/>
</g>
</svg>
