<svg width="7" height="11" viewBox="0 0 7 11" fill="none" xmlns="http://www.w3.org/2000/svg">
<path d="M0.541651 10.625C0.391651 10.475 0.31665 10.3 0.31665 10.1C0.31665 9.89999 0.391651 9.72499 0.541651 9.575L4.61665 5.49999L0.541651 1.42499C0.391651 1.27499 0.31665 1.09999 0.31665 0.899994C0.31665 0.699994 0.391651 0.524994 0.541651 0.374994C0.691651 0.224994 0.86665 0.149994 1.06665 0.149994C1.26665 0.149994 1.44165 0.224994 1.59165 0.374994L6.09165 4.87499C6.17498 4.95833 6.23765 5.05399 6.27965 5.16199C6.32098 5.27066 6.34165 5.38333 6.34165 5.49999C6.34165 5.61666 6.32098 5.72899 6.27965 5.83699C6.23765 5.94566 6.17498 6.04166 6.09165 6.12499L1.59165 10.625C1.44165 10.775 1.26665 10.85 1.06665 10.85C0.86665 10.85 0.691651 10.775 0.541651 10.625Z" fill="#333333"/>
</svg>
