<svg width="18" height="18" viewBox="0 0 18 18" fill="none" xmlns="http://www.w3.org/2000/svg">
<g opacity="0.5">
<mask id="mask0_568_3512" style="mask-type:alpha" maskUnits="userSpaceOnUse" x="0" y="0" width="18" height="18">
<rect width="18" height="18" fill="#D9D9D9"/>
</mask>
<g mask="url(#mask0_568_3512)">
<path d="M14.2688 15.0375L9.93755 10.725C9.56255 11.0375 9.1313 11.2812 8.6438 11.4562C8.1563 11.6312 7.6563 11.7188 7.1438 11.7188C5.8563 11.7188 4.7688 11.275 3.8813 10.3875C2.9938 9.5 2.55005 8.4125 2.55005 7.125C2.55005 5.85 2.9938 4.7655 3.8813 3.8715C4.7688 2.978 5.8563 2.53125 7.1438 2.53125C8.4188 2.53125 9.50005 2.975 10.3875 3.8625C11.275 4.75 11.7188 5.8375 11.7188 7.125C11.7188 7.6625 11.6313 8.175 11.4563 8.6625C11.2813 9.15 11.0438 9.575 10.7438 9.9375L15.075 14.2687C15.175 14.3687 15.225 14.4937 15.225 14.6437C15.225 14.7937 15.1688 14.925 15.0563 15.0375C14.9438 15.15 14.8095 15.2062 14.6535 15.2062C14.497 15.2062 14.3688 15.15 14.2688 15.0375ZM7.1438 10.5938C8.1063 10.5938 8.92205 10.2562 9.59105 9.58125C10.2595 8.90625 10.5938 8.0875 10.5938 7.125C10.5938 6.1625 10.2595 5.34375 9.59105 4.66875C8.92205 3.99375 8.1063 3.65625 7.1438 3.65625C6.1688 3.65625 5.34705 3.99375 4.67855 4.66875C4.00955 5.34375 3.67505 6.1625 3.67505 7.125C3.67505 8.0875 4.00955 8.90625 4.67855 9.58125C5.34705 10.2562 6.1688 10.5938 7.1438 10.5938Z" fill="#333333"/>
</g>
</g>
</svg>
