<svg width="21" height="20" viewBox="0 0 21 20" fill="none" xmlns="http://www.w3.org/2000/svg">
<mask id="mask0_568_5924" style="mask-type:alpha" maskUnits="userSpaceOnUse" x="0" y="0" width="21" height="20">
<rect x="0.5" width="20" height="20" fill="#D9D9D9"/>
</mask>
<g mask="url(#mask0_568_5924)">
<path d="M15.5002 18.125C14.8613 18.125 14.3196 17.9028 13.8752 17.4583C13.4307 17.0139 13.2085 16.4722 13.2085 15.8333C13.2085 15.7361 13.2154 15.6283 13.2293 15.51C13.2432 15.3922 13.271 15.2917 13.3127 15.2083L7.146 11.5833C6.92377 11.8056 6.67377 11.9792 6.396 12.1042C6.11822 12.2292 5.81961 12.2917 5.50016 12.2917C4.86127 12.2917 4.31961 12.0694 3.87516 11.625C3.43072 11.1806 3.2085 10.6389 3.2085 10C3.2085 9.36111 3.43072 8.81944 3.87516 8.375C4.31961 7.93056 4.86127 7.70833 5.50016 7.70833C5.81961 7.70833 6.11822 7.77083 6.396 7.89583C6.67377 8.02083 6.92377 8.19444 7.146 8.41667L13.3127 4.79167C13.271 4.70833 13.2432 4.6075 13.2293 4.48917C13.2154 4.37139 13.2085 4.26389 13.2085 4.16667C13.2085 3.52778 13.4307 2.98611 13.8752 2.54167C14.3196 2.09722 14.8613 1.875 15.5002 1.875C16.1391 1.875 16.6807 2.09722 17.1252 2.54167C17.5696 2.98611 17.7918 3.52778 17.7918 4.16667C17.7918 4.80556 17.5696 5.34722 17.1252 5.79167C16.6807 6.23611 16.1391 6.45833 15.5002 6.45833C15.1807 6.45833 14.8821 6.39583 14.6043 6.27083C14.3266 6.14583 14.0766 5.97222 13.8543 5.75L7.68766 9.375C7.72933 9.45833 7.75711 9.55556 7.771 9.66667C7.78489 9.77778 7.79183 9.88889 7.79183 10C7.79183 10.0972 7.78489 10.2047 7.771 10.3225C7.75711 10.4408 7.72933 10.5417 7.68766 10.625L13.8543 14.25C14.0766 14.0278 14.3266 13.8542 14.6043 13.7292C14.8821 13.6042 15.1807 13.5417 15.5002 13.5417C16.1391 13.5417 16.6807 13.7639 17.1252 14.2083C17.5696 14.6528 17.7918 15.1944 17.7918 15.8333C17.7918 16.4722 17.5696 17.0139 17.1252 17.4583C16.6807 17.9028 16.1391 18.125 15.5002 18.125ZM15.5002 5.20833C15.7918 5.20833 16.0385 5.1075 16.2402 4.90583C16.4413 4.70472 16.5418 4.45833 16.5418 4.16667C16.5418 3.875 16.4413 3.62833 16.2402 3.42667C16.0385 3.22556 15.7918 3.125 15.5002 3.125C15.2085 3.125 14.9621 3.22556 14.761 3.42667C14.5593 3.62833 14.4585 3.875 14.4585 4.16667C14.4585 4.45833 14.5593 4.70472 14.761 4.90583C14.9621 5.1075 15.2085 5.20833 15.5002 5.20833ZM5.50016 11.0417C5.79183 11.0417 6.0385 10.9408 6.24016 10.7392C6.44127 10.5381 6.54183 10.2917 6.54183 10C6.54183 9.70833 6.44127 9.46194 6.24016 9.26083C6.0385 9.05917 5.79183 8.95833 5.50016 8.95833C5.2085 8.95833 4.96211 9.05917 4.761 9.26083C4.55933 9.46194 4.4585 9.70833 4.4585 10C4.4585 10.2917 4.55933 10.5381 4.761 10.7392C4.96211 10.9408 5.2085 11.0417 5.50016 11.0417ZM15.5002 16.875C15.7918 16.875 16.0385 16.7742 16.2402 16.5725C16.4413 16.3714 16.5418 16.125 16.5418 15.8333C16.5418 15.5417 16.4413 15.2953 16.2402 15.0942C16.0385 14.8925 15.7918 14.7917 15.5002 14.7917C15.2085 14.7917 14.9621 14.8925 14.761 15.0942C14.5593 15.2953 14.4585 15.5417 14.4585 15.8333C14.4585 16.125 14.5593 16.3714 14.761 16.5725C14.9621 16.7742 15.2085 16.875 15.5002 16.875Z" fill="white"/>
</g>
</svg>
