<svg width="150" height="43" viewBox="0 0 150 43" fill="none" xmlns="http://www.w3.org/2000/svg">
<path d="M6.19299 25.6101L5.3715 23.3274H2.22439L1.41879 25.6101H0L3.07921 17.3528H4.55001L7.62922 25.6101H6.19299ZM5.01719 22.1685L4.24635 19.9303C4.1904 19.7811 4.11277 19.5451 4.01348 19.2224C3.91419 18.8997 3.84571 18.6637 3.80806 18.5144C3.69172 19.0275 3.5435 19.5327 3.36408 20.0272L2.62069 22.1699L5.01719 22.1685Z" fill="#4D4D4D"/>
<path d="M14.052 25.5922H12.7229V21.7676C12.7518 21.3873 12.6498 21.0086 12.4336 20.694C12.3175 20.5689 12.1742 20.472 12.0148 20.4106C11.8554 20.3492 11.684 20.3252 11.5138 20.3401C11.2847 20.3203 11.0541 20.3546 10.8407 20.4404C10.6274 20.5263 10.4374 20.6614 10.2859 20.8342C9.98274 21.3317 9.84637 21.9127 9.89683 22.4929V25.5922H8.57349V19.3792H9.60907L9.79417 20.1941H9.86216C10.056 19.8923 10.3341 19.6537 10.6619 19.5078C11.0222 19.3435 11.4143 19.2612 11.8103 19.2665C12.1176 19.2256 12.4302 19.2567 12.7234 19.3573C13.0166 19.4579 13.2824 19.6254 13.4997 19.8462C13.717 20.0672 13.8799 20.3355 13.9755 20.6301C14.0711 20.9247 14.0969 21.2374 14.0506 21.5436L14.052 25.5922Z" fill="#4D4D4D"/>
<path d="M18.8078 17.7302C18.8011 17.6308 18.8149 17.531 18.8482 17.4371C18.8815 17.3432 18.9337 17.257 19.0015 17.184C19.0766 17.117 19.1642 17.0657 19.2593 17.033C19.3544 17.0002 19.4552 16.9868 19.5556 16.9933C19.6543 16.9872 19.7533 17.001 19.8467 17.0338C19.9401 17.0665 20.026 17.1175 20.0993 17.184C20.1671 17.257 20.2193 17.3432 20.2527 17.4371C20.286 17.531 20.2998 17.6308 20.2931 17.7302C20.2983 17.8273 20.2839 17.9244 20.2505 18.0158C20.2172 18.1071 20.1658 18.191 20.0993 18.262C20.0264 18.3293 19.9407 18.3811 19.8472 18.4144C19.7538 18.4476 19.6546 18.4616 19.5556 18.4554C19.455 18.462 19.354 18.4483 19.2589 18.4151C19.1637 18.3819 19.0761 18.3298 19.0015 18.262C18.9351 18.191 18.8838 18.1071 18.8504 18.0158C18.8171 17.9244 18.8026 17.8273 18.8078 17.7302ZM20.2092 25.599H18.8859V19.3788H20.2092V25.599Z" fill="#4D4D4D"/>
<path d="M27.5765 25.5924H26.2474V21.7679C26.2763 21.3876 26.1742 21.0088 25.9581 20.6943C25.8419 20.5692 25.6986 20.4722 25.5392 20.4109C25.3797 20.3495 25.2084 20.3255 25.0382 20.3404C24.8091 20.3206 24.5785 20.3548 24.3651 20.4407C24.1518 20.5266 23.9617 20.6616 23.8103 20.8345C23.507 21.3319 23.3707 21.913 23.4213 22.4931V25.5924H22.0979V19.3794H23.1335L23.3186 20.1943H23.3865C23.5804 19.8926 23.8585 19.654 24.1864 19.508C24.5466 19.3438 24.9388 19.2614 25.3348 19.2668C25.6421 19.2255 25.9548 19.2564 26.2481 19.3569C26.5415 19.4574 26.8074 19.6248 27.0248 19.8458C27.2421 20.0668 27.4051 20.3352 27.5006 20.63C27.596 20.9247 27.6216 21.2376 27.575 21.5439L27.5765 25.5924Z" fill="#4D4D4D"/>
<path d="M29.3338 17.7302C29.3271 17.6308 29.3409 17.5313 29.3742 17.4373C29.4075 17.3434 29.4598 17.2571 29.5276 17.1841C29.6028 17.117 29.6906 17.0656 29.7859 17.0329C29.8814 17.0001 29.9823 16.9866 30.0829 16.9934C30.1815 16.9875 30.2802 17.0014 30.3733 17.0341C30.4664 17.0669 30.5521 17.1178 30.6252 17.1841C30.6931 17.2571 30.7452 17.3432 30.7787 17.4372C30.812 17.5311 30.8257 17.6308 30.819 17.7302C30.8242 17.8274 30.8097 17.9245 30.7765 18.0158C30.7431 18.1072 30.6917 18.191 30.6252 18.262C30.5526 18.3292 30.4671 18.3808 30.3739 18.4141C30.2807 18.4473 30.1818 18.4614 30.0829 18.4555C29.9821 18.4623 29.8809 18.4488 29.7855 18.4155C29.69 18.3822 29.6023 18.33 29.5276 18.262C29.461 18.191 29.4097 18.1072 29.3763 18.0158C29.3431 17.9245 29.3286 17.8274 29.3338 17.7302ZM30.7352 25.5991H29.4191V19.3788H30.7425L30.7352 25.5991Z" fill="#4D4D4D"/>
<path d="M34.9495 24.6481C35.2778 24.6471 35.6042 24.5958 35.9171 24.4962V25.4918C35.7351 25.5659 35.5454 25.6197 35.3516 25.6521C35.113 25.6962 34.8709 25.718 34.6284 25.7172C33.375 25.7172 32.7482 25.0573 32.7482 23.7378V20.3856H31.8978V19.8076L32.8104 19.3236L33.2603 18.0073H34.076V19.3901H35.8491V20.3914H34.076V23.7146C34.0651 23.8424 34.0806 23.971 34.1217 24.0926C34.1628 24.2142 34.2284 24.3261 34.3145 24.4211C34.3999 24.4994 34.5 24.5596 34.6091 24.5986C34.7182 24.6376 34.8338 24.6544 34.9495 24.6481Z" fill="#4D4D4D"/>
<path d="M37.0908 17.7302C37.0843 17.6308 37.098 17.5312 37.1314 17.4373C37.1647 17.3433 37.2169 17.2571 37.2846 17.184C37.3597 17.1171 37.4473 17.0657 37.5424 17.033C37.6375 17.0002 37.7382 16.9868 37.8385 16.9933C37.9374 16.9872 38.0364 17.0009 38.1298 17.0337C38.2232 17.0664 38.3091 17.1175 38.3824 17.184C38.4503 17.257 38.5024 17.3432 38.5357 17.4371C38.569 17.531 38.5828 17.6308 38.5762 17.7302C38.5814 17.8273 38.5668 17.9244 38.5335 18.0158C38.5003 18.1071 38.4488 18.191 38.3824 18.262C38.3096 18.3293 38.2238 18.3811 38.1303 18.4143C38.0368 18.4476 37.9376 18.4615 37.8385 18.4554C37.7379 18.462 37.6371 18.4483 37.5418 18.4151C37.4467 18.3818 37.3592 18.3298 37.2846 18.262C37.2181 18.191 37.1668 18.1071 37.1335 18.0158C37.1002 17.9244 37.0857 17.8273 37.0908 17.7302ZM38.4923 25.599H37.169V19.3787H38.4923V25.599Z" fill="#4D4D4D"/>
<path d="M44.2805 25.5953L44.0158 24.7285H43.971C43.7341 25.0541 43.4233 25.3188 43.0641 25.5013C42.6923 25.6508 42.2932 25.7208 41.8926 25.7066C41.6329 25.7221 41.3726 25.6861 41.1267 25.6012C40.8807 25.5161 40.6539 25.3836 40.4593 25.211C40.281 25.026 40.1432 24.806 40.0546 24.5649C39.9659 24.3239 39.9285 24.0672 39.9445 23.8109C39.9296 23.5292 39.9875 23.248 40.1126 22.995C40.2377 22.742 40.4258 22.5255 40.6589 22.3661C41.322 21.99 42.0765 21.805 42.8386 21.8315L43.9131 21.7981V21.4659C43.9381 21.1439 43.8382 20.8248 43.634 20.5745C43.5172 20.4689 43.3798 20.3886 43.2304 20.3388C43.0811 20.2891 42.923 20.2709 42.7662 20.2855C42.4549 20.2855 42.1454 20.3342 41.8492 20.4298C41.5607 20.522 41.2786 20.6331 41.0046 20.7624L40.5707 19.8173C40.9218 19.6364 41.2946 19.5015 41.68 19.4157C42.0523 19.3251 42.4337 19.2765 42.8168 19.2711C43.4572 19.2243 44.0932 19.4079 44.6102 19.7884C44.8256 19.9975 44.9917 20.2519 45.0965 20.5331C45.2013 20.8142 45.2422 21.1149 45.2162 21.4139V25.604L44.2805 25.5953ZM42.3092 24.6951C42.7323 24.7157 43.147 24.5718 43.4663 24.2935C43.6152 24.1473 43.7309 23.971 43.8058 23.7764C43.8806 23.5817 43.9128 23.3732 43.9001 23.165V22.6246L43.1002 22.6578C42.6277 22.6429 42.1593 22.7505 41.7408 22.97C41.6008 23.062 41.488 23.1893 41.4132 23.3389C41.3386 23.4887 41.3049 23.6555 41.3156 23.8224C41.3082 23.9412 41.3264 24.0603 41.3691 24.1714C41.4118 24.2827 41.4778 24.3835 41.5629 24.4669C41.7722 24.636 42.0378 24.7196 42.3063 24.7009L42.3092 24.6951Z" fill="#4D4D4D"/>
<path d="M49.3864 24.6481C49.7153 24.6472 50.0421 24.5959 50.3554 24.4962V25.4918C50.1735 25.5659 49.9837 25.6197 49.7898 25.6521C49.5513 25.6962 49.3092 25.718 49.0667 25.7172C47.8132 25.7172 47.1866 25.0573 47.1866 23.7378V20.3856H46.3362V19.8076L47.2487 19.3236L47.6985 18.0073H48.5156V19.3901H50.2889V20.3914H48.5156V23.7146C48.5048 23.8424 48.5203 23.971 48.5613 24.0926C48.6025 24.2142 48.6681 24.3261 48.7543 24.4211C48.8393 24.4991 48.9389 24.5592 49.0474 24.5981C49.1559 24.6371 49.2712 24.654 49.3864 24.6481Z" fill="#4D4D4D"/>
<path d="M51.5217 17.7302C51.5152 17.6308 51.529 17.5312 51.5624 17.4373C51.5957 17.3433 51.6478 17.2571 51.7156 17.184C51.7906 17.1171 51.8782 17.0657 51.9733 17.033C52.0684 17.0002 52.1692 16.9868 52.2696 16.9933C52.3683 16.9872 52.4674 17.0009 52.5608 17.0337C52.6541 17.0664 52.7401 17.1175 52.8134 17.184C52.8811 17.2571 52.9331 17.3434 52.9664 17.4373C52.9997 17.5312 53.0135 17.6308 53.0071 17.7302C53.0123 17.8273 52.9978 17.9244 52.9645 18.0158C52.9312 18.1071 52.8798 18.191 52.8134 18.262C52.7405 18.3292 52.6547 18.3809 52.5613 18.4142C52.4678 18.4474 52.3686 18.4614 52.2696 18.4554C52.169 18.462 52.068 18.4483 51.9728 18.4151C51.8777 18.3818 51.7901 18.3298 51.7156 18.262C51.6491 18.191 51.5978 18.1071 51.5645 18.0158C51.5312 17.9244 51.5165 17.8273 51.5217 17.7302ZM52.9232 25.599H51.5999V19.3787H52.9232V25.599Z" fill="#4D4D4D"/>
<path d="M56.2362 25.6044L53.8715 19.3843H55.267L56.534 22.9964C56.717 23.4724 56.8489 23.9664 56.9274 24.4702H56.9722C57.0652 23.9696 57.1967 23.4768 57.3656 22.9964L58.6327 19.3843H60.0399L57.6635 25.6044H56.2362Z" fill="#4D4D4D"/>
<path d="M63.7022 25.7072C63.2853 25.731 62.868 25.6679 62.4769 25.5222C62.0857 25.3764 61.7293 25.1512 61.43 24.8604C61.1464 24.5451 60.9279 24.1767 60.7874 23.7768C60.647 23.3768 60.5871 22.9531 60.6113 22.5298C60.5615 21.6651 60.8323 20.8123 61.372 20.1343C61.6335 19.8434 61.9567 19.6146 62.318 19.4646C62.6794 19.3146 63.0698 19.2473 63.4606 19.2674C63.8197 19.2488 64.1783 19.3058 64.5144 19.4348C64.8496 19.5637 65.1548 19.7616 65.4091 20.0158C65.9099 20.5807 66.167 21.3209 66.1247 22.0747V22.7886H61.9751C61.9593 23.2972 62.1341 23.7934 62.4654 24.18C62.6359 24.3479 62.8402 24.478 63.0644 24.5619C63.2887 24.6457 63.5281 24.6815 63.7672 24.6667C64.1118 24.6691 64.4566 24.6342 64.7937 24.5627C65.1452 24.4821 65.4881 24.3666 65.8165 24.2176V25.2923C65.5054 25.4422 65.176 25.5521 64.837 25.619C64.4624 25.6843 64.083 25.7139 63.7022 25.7072ZM63.4606 20.2629C63.2733 20.2543 63.0861 20.2854 62.9116 20.354C62.7371 20.4228 62.5791 20.5276 62.4482 20.6616C62.1704 20.9879 62.0109 21.3983 61.9954 21.8263H64.8216C64.8447 21.4047 64.7128 20.9893 64.4499 20.6588C64.3237 20.5253 64.1696 20.4207 63.9992 20.3523C63.8277 20.2839 63.6444 20.2534 63.4606 20.2629Z" fill="#4D4D4D"/>
<path d="M73.7443 20.3812H72.2246V25.6015H70.8956V20.3812H69.8708V19.7628L70.8956 19.3582V18.9538C70.8464 18.3623 71.0323 17.7754 71.4127 17.3195C71.6265 17.1284 71.8769 16.9828 72.1495 16.8914C72.4211 16.8 72.709 16.7648 72.995 16.7879C73.4631 16.7881 73.9273 16.8656 74.3693 17.0176L74.0207 18.0189C73.7193 17.918 73.4043 17.8648 73.0865 17.8613C72.9623 17.8509 72.8381 17.871 72.7244 17.9195C72.6098 17.9681 72.5097 18.044 72.4307 18.1403C72.2766 18.3903 72.2053 18.6823 72.2255 18.9753V19.3799H73.7462L73.7443 20.3812Z" fill="#4D4D4D"/>
<path d="M77.9674 19.2644C78.188 19.2606 78.4085 19.2795 78.6252 19.3208L78.4952 20.5518C78.3054 20.5069 78.1119 20.484 77.9164 20.4838C77.6785 20.4746 77.4396 20.5159 77.2181 20.6051C76.9966 20.6942 76.7963 20.8293 76.6307 21.0012C76.4641 21.1819 76.335 21.3934 76.2503 21.624C76.1655 21.8546 76.128 22.0995 76.1376 22.3448V25.5957H74.8143V19.3785H75.8496L76.0249 20.4753H76.0923C76.2859 20.1191 76.5633 19.816 76.9013 19.5925C77.2162 19.3802 77.587 19.2659 77.9674 19.2644Z" fill="#4D4D4D"/>
<path d="M85.3011 22.4808C85.3531 23.3442 85.0738 24.1948 84.5191 24.8591C84.2389 25.15 83.8999 25.3769 83.5233 25.5245C83.1477 25.6721 82.7442 25.737 82.3407 25.7145C81.8004 25.7251 81.2668 25.5886 80.7978 25.3199C80.3481 25.0551 79.9888 24.6614 79.7664 24.1901C79.5169 23.6554 79.3937 23.0706 79.4062 22.4808C79.3542 21.6233 79.6325 20.7784 80.1834 20.1185C80.4656 19.8279 80.8075 19.6014 81.185 19.4548C81.5625 19.3082 81.9679 19.2448 82.3724 19.2689C82.7711 19.2497 83.1689 19.3174 83.5377 19.4671C83.9076 19.6169 84.2398 19.8449 84.5114 20.1358C85.0642 20.7885 85.3464 21.6273 85.3011 22.4808ZM80.7689 22.4808C80.7689 23.917 81.2986 24.6351 82.3599 24.6351C83.4203 24.6351 83.9461 23.917 83.9365 22.4808C83.9365 21.0601 83.4058 20.3497 82.3455 20.3497C82.1134 20.3302 81.8803 20.3705 81.6694 20.4669C81.4575 20.5633 81.2745 20.7125 81.1378 20.9001C80.8624 21.3796 80.7362 21.9296 80.7728 22.4808H80.7689Z" fill="#4D4D4D"/>
<path d="M92.0638 25.5969H90.7347V21.7608C90.7617 21.3855 90.6673 21.0113 90.4641 20.6944C90.362 20.5729 90.2311 20.4777 90.0847 20.4167C89.9373 20.3556 89.7784 20.3305 89.6195 20.3435C89.4057 20.3261 89.1909 20.3624 88.9945 20.4493C88.798 20.5361 88.6266 20.6706 88.4956 20.8405C88.2154 21.3451 88.0911 21.9213 88.1383 22.4963V25.5955H86.8151V19.384H87.8504L88.0372 20.1988H88.1056C88.2808 19.8998 88.5418 19.6606 88.8558 19.5125C89.1938 19.3494 89.5656 19.2668 89.9402 19.2713C90.3197 19.2234 90.7039 19.2912 91.0439 19.4658C91.3839 19.6404 91.6622 19.9136 91.8442 20.2495H91.9338C92.1187 19.9399 92.3883 19.6893 92.71 19.527C93.0663 19.3492 93.4602 19.2605 93.8589 19.2685C94.1536 19.2418 94.4512 19.2781 94.7315 19.375C95.0117 19.4719 95.2679 19.6272 95.4827 19.8305C95.8592 20.3195 96.0412 20.9305 95.9921 21.5455V25.6011H94.6689V21.7652C94.6958 21.3895 94.5995 21.0152 94.3954 20.6988C94.2913 20.5778 94.1613 20.4829 94.014 20.422C93.8666 20.3609 93.7068 20.3354 93.5479 20.3477C93.3341 20.3299 93.1202 20.3644 92.9228 20.4482C92.7264 20.532 92.553 20.6627 92.4182 20.8289C92.1476 21.2716 92.0224 21.788 92.0609 22.3054L92.0638 25.5969Z" fill="#4D4D4D"/>
<g clip-path="url(#clip0_442_10090)">
<path d="M149.99 16.5209H147.082C146.897 8.95811 140.655 2.8829 132.984 2.8829C125.313 2.8829 119.071 8.95811 118.886 16.5209H116C116.174 7.42899 123.731 -0.000220799 132.996 -0.000220799C137.449 -0.00756908 141.726 1.72039 144.905 4.811C148.084 7.90161 149.91 12.1072 149.99 16.5209Z" fill="#18484C"/>
<path d="M131.804 30.71V33.6673C123.136 33.0735 116.258 26.0317 116.011 17.3475H118.931C119.091 22.0317 121.668 26.2997 125.53 28.6885C125.299 27.9821 125.135 27.1913 125.135 26.4123V7.56738H128.052V19.2757H130.969V22.1695H128.052V26.4123C128.052 28.1939 129.182 29.7325 130.707 30.4434C131.052 30.6009 131.424 30.6914 131.804 30.71" fill="#96CA4B"/>
<path d="M150 17.2098C149.874 23.5218 146.25 28.9825 140.973 31.7693V26.9905C140.973 26.8528 140.963 26.7315 140.963 26.5952C140.963 24.139 138.918 22.1689 136.442 22.1689H131.803V19.2762H135.629C138.105 19.2762 140.12 17.3228 140.12 14.8681C140.12 12.4134 138.105 10.4599 135.629 10.4599H128.885V7.56689H135.629C139.72 7.56689 143.049 10.8262 143.049 14.8831C143.049 17.123 142.033 19.1026 140.435 20.4485C142.154 21.5369 143.474 22.9956 143.613 26.0263C146.114 23.2711 147.086 19.5517 147.086 17.2098H150Z" fill="#96CA4B"/>
<path d="M117.729 37.4917H116.548C116.529 37.4917 116.511 37.4856 116.496 37.4744C116.481 37.4632 116.47 37.4474 116.465 37.4295L116.089 36.125C116.086 36.1123 116.085 36.0988 116.088 36.0858C116.09 36.0728 116.095 36.0605 116.104 36.0499C116.112 36.0393 116.122 36.0308 116.134 36.0248C116.146 36.0189 116.159 36.0159 116.173 36.0159H120.684C120.703 36.0159 120.721 36.022 120.736 36.0334C120.751 36.0448 120.762 36.0607 120.767 36.0788L121.13 37.3833C121.133 37.3961 121.134 37.4094 121.131 37.4224C121.129 37.4353 121.123 37.4476 121.115 37.4581C121.107 37.4686 121.097 37.4771 121.085 37.4829C121.073 37.4888 121.06 37.4918 121.046 37.4918H119.601C119.578 37.4918 119.556 37.5009 119.54 37.5169C119.524 37.533 119.514 37.5548 119.514 37.5776V42.4143C119.514 42.437 119.505 42.4588 119.489 42.4749C119.473 42.491 119.451 42.5 119.428 42.5H117.902C117.891 42.5 117.879 42.4978 117.869 42.4935C117.859 42.4892 117.849 42.4829 117.841 42.4749C117.833 42.467 117.827 42.4575 117.822 42.4471C117.818 42.4367 117.816 42.4256 117.816 42.4143V37.5775C117.816 37.5547 117.807 37.5329 117.79 37.5168C117.774 37.5007 117.752 37.4917 117.729 37.4917" fill="#333333"/>
<path d="M124.822 41.3484H122.153C122.137 41.3484 122.123 41.3523 122.11 41.3597C122.096 41.3672 122.086 41.3779 122.078 41.3908L121.449 42.4575C121.442 42.4704 121.431 42.4811 121.418 42.4886C121.405 42.496 121.39 42.4999 121.375 42.4999H119.821C119.806 42.4999 119.791 42.496 119.778 42.4884C119.765 42.4809 119.754 42.4701 119.746 42.4571C119.739 42.4441 119.735 42.4293 119.735 42.4143C119.735 42.3993 119.739 42.3845 119.746 42.3715L123.414 36.0534C123.422 36.0404 123.433 36.0295 123.446 36.022C123.459 36.0145 123.474 36.0105 123.489 36.0105C123.505 36.0105 123.52 36.0145 123.533 36.022C123.546 36.0295 123.557 36.0404 123.564 36.0534L127.228 42.3716C127.236 42.3846 127.24 42.3994 127.24 42.4145C127.24 42.4295 127.236 42.4443 127.228 42.4573C127.22 42.4703 127.209 42.4811 127.196 42.4886C127.183 42.4961 127.168 42.5001 127.153 42.5001H125.599C125.584 42.5001 125.569 42.4962 125.556 42.4887C125.543 42.4813 125.532 42.4705 125.525 42.4576L124.896 41.3908C124.889 41.3779 124.878 41.3672 124.865 41.3598C124.851 41.3523 124.837 41.3484 124.822 41.3484M124.092 40.0221L123.564 39.1257C123.556 39.1128 123.545 39.1021 123.532 39.0946C123.519 39.0872 123.504 39.0833 123.489 39.0832C123.474 39.0832 123.459 39.0871 123.446 39.0945C123.433 39.1019 123.422 39.1126 123.415 39.1255L122.883 40.0219C122.875 40.0349 122.871 40.0497 122.871 40.0648C122.871 40.0799 122.875 40.0948 122.882 40.1079C122.89 40.121 122.901 40.1319 122.914 40.1395C122.927 40.1471 122.942 40.1511 122.957 40.1511H124.018C124.033 40.1511 124.048 40.1471 124.061 40.1395C124.074 40.1319 124.085 40.1211 124.093 40.108C124.1 40.0949 124.104 40.0801 124.104 40.065C124.104 40.0499 124.1 40.0351 124.092 40.0221Z" fill="#333333"/>
<path d="M131.456 42.5H127.623C127.6 42.5 127.578 42.491 127.562 42.4749C127.546 42.4588 127.536 42.437 127.536 42.4143V36.1057C127.536 36.083 127.545 36.0612 127.562 36.0451C127.578 36.0291 127.6 36.02 127.623 36.02L129.149 36.0159C129.16 36.0158 129.171 36.018 129.182 36.0223C129.192 36.0266 129.202 36.033 129.21 36.0409C129.218 36.0489 129.224 36.0583 129.229 36.0688C129.233 36.0792 129.235 36.0903 129.235 36.1016V40.9337C129.235 40.9564 129.245 40.9782 129.261 40.9943C129.277 41.0104 129.299 41.0194 129.322 41.0194H131.858C131.871 41.0194 131.885 41.0226 131.897 41.0286C131.909 41.0346 131.919 41.0434 131.927 41.0541C131.935 41.0649 131.941 41.0773 131.943 41.0905C131.945 41.1037 131.944 41.1173 131.94 41.1301L131.539 42.4392C131.534 42.4568 131.523 42.4722 131.508 42.4831C131.493 42.4941 131.475 42.5 131.456 42.5Z" fill="#333333"/>
<path d="M132.423 42.4005V36.1014C132.423 36.0786 132.432 36.0568 132.448 36.0407C132.465 36.0247 132.487 36.0156 132.51 36.0156H134.351C134.898 36.0156 135.382 36.0826 135.802 36.2167C136.215 36.3477 136.539 36.5625 136.773 36.861C137.004 37.1597 137.12 37.545 137.12 38.0171C137.118 38.3711 137.013 38.7171 136.817 39.0133C136.651 39.2859 136.402 39.4999 136.107 39.6254C136.095 39.63 136.085 39.6371 136.076 39.6461C136.067 39.6551 136.061 39.6658 136.057 39.6775C136.053 39.6893 136.051 39.7017 136.053 39.7141C136.054 39.7264 136.058 39.7383 136.064 39.749L137.651 42.3657C137.659 42.3787 137.664 42.3935 137.664 42.4087C137.664 42.4239 137.66 42.4388 137.653 42.452C137.645 42.4653 137.634 42.4762 137.621 42.4839C137.608 42.4915 137.593 42.4956 137.577 42.4956H135.794C135.779 42.4956 135.763 42.4914 135.75 42.4836C135.737 42.4757 135.726 42.4645 135.718 42.451L134.142 39.5891H134.122V42.4005C134.122 42.4233 134.113 42.4451 134.097 42.4612C134.081 42.4773 134.059 42.4863 134.036 42.4863H132.509C132.487 42.4863 132.465 42.4773 132.448 42.4612C132.432 42.4451 132.423 42.4233 132.423 42.4005M134.122 39.1178C134.122 39.1293 134.125 39.1406 134.129 39.1512C134.134 39.1618 134.14 39.1714 134.148 39.1794C134.157 39.1874 134.167 39.1937 134.177 39.198C134.188 39.2022 134.2 39.2043 134.211 39.2041C134.458 39.1981 134.666 39.1665 134.835 39.1093C135.01 39.0568 135.162 38.9493 135.27 38.8031C135.37 38.6629 135.421 38.4817 135.421 38.2593C135.421 37.9242 135.313 37.6957 135.099 37.5738C134.896 37.4605 134.6 37.3998 134.211 37.3919C134.199 37.3917 134.188 37.3939 134.177 37.3981C134.166 37.4024 134.157 37.4087 134.148 37.4167C134.14 37.4248 134.134 37.4343 134.129 37.4449C134.125 37.4554 134.122 37.4667 134.122 37.4782L134.122 39.1178Z" fill="#333333"/>
<path d="M142.71 36.4705C143.204 36.7507 143.615 37.1548 143.902 37.6423C144.194 38.1339 144.346 38.6948 144.343 39.2654C144.348 39.8348 144.195 40.3947 143.902 40.8843C143.613 41.3735 143.2 41.7789 142.704 42.0599C142.207 42.341 141.645 42.4878 141.073 42.4857C140.501 42.4872 139.939 42.3401 139.442 42.0591C138.945 41.7782 138.531 41.3731 138.241 40.8843C137.947 40.3947 137.795 39.8348 137.8 39.2653C137.796 38.6947 137.949 38.1337 138.241 37.6422C138.53 37.1551 138.942 36.7513 139.437 36.4704C139.935 36.1888 140.5 36.0408 141.074 36.0408C141.647 36.0408 142.212 36.1888 142.71 36.4704M140.196 37.703C139.93 37.8705 139.711 38.1011 139.558 38.3739C139.405 38.6468 139.323 38.9531 139.319 39.2653C139.319 39.5762 139.402 39.8815 139.559 40.1506C139.71 40.4274 139.929 40.6618 140.196 40.832C140.457 40.999 140.761 41.0879 141.071 41.0879C141.382 41.0879 141.686 40.999 141.946 40.832C142.214 40.6611 142.435 40.427 142.588 40.1506C142.743 39.8806 142.824 39.5756 142.824 39.2652C142.824 38.9549 142.743 38.6498 142.588 38.3799C142.436 38.1049 142.217 37.8722 141.951 37.7031C141.689 37.5358 141.385 37.4469 141.074 37.447C140.762 37.4453 140.457 37.5343 140.196 37.7031" fill="#333333"/>
<path d="M145.022 42.4142V36.1014C145.022 36.0786 145.031 36.0568 145.047 36.0407C145.064 36.0247 145.086 36.0156 145.109 36.0156H147.092C147.554 36.0156 147.948 36.0492 148.274 36.1162C148.579 36.1728 148.871 36.2876 149.133 36.4543C149.375 36.614 149.568 36.8371 149.689 37.0987C149.82 37.3698 149.885 37.7003 149.885 38.0903C149.89 38.388 149.823 38.6826 149.689 38.9494C149.559 39.2025 149.374 39.424 149.148 39.5982C148.901 39.787 148.621 39.9281 148.322 40.014C147.998 40.1118 147.661 40.1611 147.322 40.1602H146.812C146.801 40.1602 146.79 40.1624 146.779 40.1667C146.769 40.1711 146.759 40.1774 146.751 40.1854C146.743 40.1934 146.737 40.2029 146.732 40.2133C146.728 40.2237 146.726 40.2349 146.726 40.2462V42.4143C146.726 42.4371 146.717 42.4589 146.701 42.475C146.684 42.491 146.662 42.5001 146.639 42.5001H145.108C145.086 42.5001 145.064 42.491 145.047 42.475C145.031 42.4589 145.022 42.4371 145.022 42.4143M146.726 37.4767V38.699C146.726 38.7218 146.735 38.7436 146.751 38.7596C146.768 38.7757 146.789 38.7847 146.812 38.7848H147.214C147.527 38.7848 147.767 38.7238 147.937 38.6019C148.103 38.4831 148.186 38.3095 148.186 38.0811C148.186 37.8588 148.103 37.6882 147.937 37.5693C147.768 37.4504 147.527 37.391 147.214 37.391H146.812C146.79 37.391 146.768 37.4 146.751 37.4161C146.735 37.4322 146.726 37.454 146.726 37.4767" fill="#333333"/>
</g>
<defs>
<clipPath id="clip0_442_10090">
<rect width="34" height="42.5" fill="white" transform="translate(116)"/>
</clipPath>
</defs>
</svg>
