<svg width="37" height="37" viewBox="0 0 37 37" fill="none" xmlns="http://www.w3.org/2000/svg">
<g clip-path="url(#clip0_457_29030)">
<path d="M35.4672 18.2866H32.4327C32.24 10.3427 25.7261 3.96127 17.722 3.96127C9.7178 3.96127 3.20396 10.3427 3.01109 18.2866H0C0.181121 8.73644 8.06639 0.932886 17.735 0.932886C27.4009 0.916875 35.2933 8.64096 35.4672 18.2866Z" fill="#18484C"/>
<path d="M16.4904 33.1908V36.2974C7.4462 35.6735 0.269061 28.2768 0.0118408 19.155H3.05877C3.22547 24.0753 5.91427 28.5584 9.94452 31.0674C9.70294 30.3255 9.53149 29.4949 9.53149 28.6765V8.88208H12.5752V21.1804H15.619V24.2199H12.5752V28.6767C12.5752 30.548 13.7551 32.1642 15.3463 32.9108C15.7062 33.0762 16.0945 33.1713 16.4903 33.1908" fill="#96CA4B"/>
<path d="M35.4774 19.0105C35.3454 25.6404 31.5644 31.3764 26.0582 34.3035V29.284C26.0582 29.1393 26.048 29.012 26.048 28.8688C26.048 26.2889 23.914 24.2194 21.3305 24.2194H16.4896V21.181H20.4825C23.0661 21.181 25.1682 19.1291 25.1682 16.5508C25.1682 13.9725 23.0659 11.9203 20.4825 11.9203H13.4452V8.88159H20.4825C24.7506 8.88159 28.2245 12.3052 28.2245 16.5665C28.2245 18.9193 27.1646 20.9985 25.4975 22.4123C27.2908 23.5556 28.6681 25.0878 28.8129 28.2711C31.4227 25.3771 32.4376 21.4703 32.4376 19.0105H35.4774Z" fill="#96CA4B"/>
</g>
<defs>
<clipPath id="clip0_457_29030">
<rect width="37" height="36" fill="white" transform="translate(0 0.466553)"/>
</clipPath>
</defs>
</svg>
