<svg width="18" height="18" viewBox="0 0 18 18" fill="none" xmlns="http://www.w3.org/2000/svg">
<mask id="mask0_568_2386" style="mask-type:alpha" maskUnits="userSpaceOnUse" x="0" y="0" width="18" height="18">
<rect width="18" height="18" fill="#D9D9D9"/>
</mask>
<g mask="url(#mask0_568_2386)">
<path d="M9 14.4562C8.6875 14.4562 8.422 14.3467 8.2035 14.1277C7.9845 13.9092 7.875 13.6437 7.875 13.3312C7.875 13.0187 7.9845 12.753 8.2035 12.534C8.422 12.3155 8.6875 12.2062 9 12.2062C9.3125 12.2062 9.578 12.3155 9.7965 12.534C10.0155 12.753 10.125 13.0187 10.125 13.3312C10.125 13.6437 10.0155 13.9092 9.7965 14.1277C9.578 14.3467 9.3125 14.4562 9 14.4562ZM9 10.125C8.6875 10.125 8.422 10.0155 8.2035 9.79645C7.9845 9.57795 7.875 9.31245 7.875 8.99995C7.875 8.68745 7.9845 8.42195 8.2035 8.20345C8.422 7.98445 8.6875 7.87495 9 7.87495C9.3125 7.87495 9.578 7.98445 9.7965 8.20345C10.0155 8.42195 10.125 8.68745 10.125 8.99995C10.125 9.31245 10.0155 9.57795 9.7965 9.79645C9.578 10.0155 9.3125 10.125 9 10.125ZM9 5.7937C8.6875 5.7937 8.422 5.6842 8.2035 5.4652C7.9845 5.2467 7.875 4.9812 7.875 4.6687C7.875 4.3562 7.9845 4.09045 8.2035 3.87145C8.422 3.65295 8.6875 3.5437 9 3.5437C9.3125 3.5437 9.578 3.65295 9.7965 3.87145C10.0155 4.09045 10.125 4.3562 10.125 4.6687C10.125 4.9812 10.0155 5.2467 9.7965 5.4652C9.578 5.6842 9.3125 5.7937 9 5.7937Z" fill="#1C1B1F"/>
</g>
</svg>
