<svg width="20" height="20" viewBox="0 0 20 20" fill="none" xmlns="http://www.w3.org/2000/svg">
<mask id="mask0_547_20388" style="mask-type:alpha" maskUnits="userSpaceOnUse" x="0" y="0" width="20" height="20">
<rect width="20" height="20" fill="#D9D9D9"/>
</mask>
<g mask="url(#mask0_547_20388)">
<path d="M12.4793 13.3543C12.5904 13.4654 12.7293 13.521 12.896 13.521C13.0627 13.521 13.2085 13.4585 13.3335 13.3335C13.4585 13.2085 13.521 13.0627 13.521 12.896C13.521 12.7293 13.4585 12.5835 13.3335 12.4585L10.6252 9.75016V6.43766C10.6252 6.271 10.5663 6.12877 10.4485 6.011C10.3302 5.89266 10.1807 5.8335 10.0002 5.8335C9.81961 5.8335 9.67044 5.89266 9.55266 6.011C9.43433 6.12877 9.37516 6.27794 9.37516 6.4585V9.93766C9.37516 10.0349 9.39239 10.1285 9.42683 10.2185C9.46183 10.3091 9.521 10.396 9.60433 10.4793L12.4793 13.3543ZM10.0002 17.9168C8.90294 17.9168 7.87183 17.7085 6.90683 17.2918C5.94127 16.8752 5.10433 16.3127 4.396 15.6043C3.68766 14.896 3.12516 14.0591 2.7085 13.0935C2.29183 12.1285 2.0835 11.0974 2.0835 10.0002C2.0835 8.90294 2.29183 7.87155 2.7085 6.906C3.12516 5.941 3.68766 5.10433 4.396 4.396C5.10433 3.68766 5.94127 3.12516 6.90683 2.7085C7.87183 2.29183 8.90294 2.0835 10.0002 2.0835C11.0974 2.0835 12.1288 2.29183 13.0943 2.7085C14.0593 3.12516 14.896 3.68766 15.6043 4.396C16.3127 5.10433 16.8752 5.941 17.2918 6.906C17.7085 7.87155 17.9168 8.90294 17.9168 10.0002C17.9168 11.0974 17.7085 12.1285 17.2918 13.0935C16.8752 14.0591 16.3127 14.896 15.6043 15.6043C14.896 16.3127 14.0593 16.8752 13.0943 17.2918C12.1288 17.7085 11.0974 17.9168 10.0002 17.9168ZM10.0002 16.6668C11.8474 16.6668 13.4204 16.0177 14.7193 14.7193C16.0177 13.4204 16.6668 11.8474 16.6668 10.0002C16.6668 8.15294 16.0177 6.57989 14.7193 5.281C13.4204 3.98266 11.8474 3.3335 10.0002 3.3335C8.15294 3.3335 6.58016 3.98266 5.28183 5.281C3.98294 6.57989 3.3335 8.15294 3.3335 10.0002C3.3335 11.8474 3.98294 13.4204 5.28183 14.7193C6.58016 16.0177 8.15294 16.6668 10.0002 16.6668Z" fill="#969696"/>
</g>
</svg>
