<svg width="24" height="24" viewBox="0 0 24 24" fill="none" xmlns="http://www.w3.org/2000/svg">
<path fill-rule="evenodd" clip-rule="evenodd" d="M3.25 3C3.25 2.0335 4.0335 1.25 5 1.25H19C19.9665 1.25 20.75 2.03351 20.75 3V21C20.75 21.9665 19.9665 22.75 19 22.75H5C4.03351 22.75 3.25 21.9665 3.25 21V3ZM5 2.75C4.86193 2.75 4.75 2.86193 4.75 3V21C4.75 21.1381 4.86192 21.25 5 21.25H19C19.1381 21.25 19.25 21.1381 19.25 21V3C19.25 2.86192 19.1381 2.75 19 2.75H5Z" fill="#18484C"/>
<path fill-rule="evenodd" clip-rule="evenodd" d="M7.75 15C7.75 14.5858 8.08579 14.25 8.5 14.25H15.5C15.9142 14.25 16.25 14.5858 16.25 15C16.25 15.4142 15.9142 15.75 15.5 15.75H8.5C8.08579 15.75 7.75 15.4142 7.75 15Z" fill="#18484C"/>
<path fill-rule="evenodd" clip-rule="evenodd" d="M7.75 18C7.75 17.5858 8.08579 17.25 8.5 17.25H12C12.4142 17.25 12.75 17.5858 12.75 18C12.75 18.4142 12.4142 18.75 12 18.75H8.5C8.08579 18.75 7.75 18.4142 7.75 18Z" fill="#18484C"/>
<path fill-rule="evenodd" clip-rule="evenodd" d="M15.5303 5.96967C15.8232 6.26256 15.8232 6.73744 15.5303 7.03033L11.5303 11.0303C11.2374 11.3232 10.7626 11.3232 10.4697 11.0303L8.46967 9.03033C8.17678 8.73744 8.17678 8.26256 8.46967 7.96967C8.76256 7.67678 9.23744 7.67678 9.53033 7.96967L11 9.43934L14.4697 5.96967C14.7626 5.67678 15.2374 5.67678 15.5303 5.96967Z" fill="#0FA76F"/>
</svg>
