<svg width="24" height="24" viewBox="0 0 24 24" fill="none" xmlns="http://www.w3.org/2000/svg">
<mask id="mask0_488_10482" style="mask-type:alpha" maskUnits="userSpaceOnUse" x="0" y="0" width="24" height="24">
<rect width="24" height="24" fill="#D9D9D9"/>
</mask>
<g mask="url(#mask0_488_10482)">
<path d="M4.58824 10.9412C4.14706 10.9412 3.77224 10.7866 3.46376 10.4774C3.15459 10.1689 3 9.79412 3 9.35294V4.58824C3 4.14706 3.15459 3.77224 3.46376 3.46376C3.77224 3.15459 4.14706 3 4.58824 3H9.35294C9.79412 3 10.1689 3.15459 10.4774 3.46376C10.7866 3.77224 10.9412 4.14706 10.9412 4.58824V9.35294C10.9412 9.79412 10.7866 10.1689 10.4774 10.4774C10.1689 10.7866 9.79412 10.9412 9.35294 10.9412H4.58824ZM4.58824 21C4.14706 21 3.77224 20.8454 3.46376 20.5362C3.15459 20.2278 3 19.8529 3 19.4118V14.6471C3 14.2059 3.15459 13.8311 3.46376 13.5226C3.77224 13.2134 4.14706 13.0588 4.58824 13.0588H9.35294C9.79412 13.0588 10.1689 13.2134 10.4774 13.5226C10.7866 13.8311 10.9412 14.2059 10.9412 14.6471V19.4118C10.9412 19.8529 10.7866 20.2278 10.4774 20.5362C10.1689 20.8454 9.79412 21 9.35294 21H4.58824ZM14.6471 10.9412C14.2059 10.9412 13.8311 10.7866 13.5226 10.4774C13.2134 10.1689 13.0588 9.79412 13.0588 9.35294V4.58824C13.0588 4.14706 13.2134 3.77224 13.5226 3.46376C13.8311 3.15459 14.2059 3 14.6471 3H19.4118C19.8529 3 20.2278 3.15459 20.5362 3.46376C20.8454 3.77224 21 4.14706 21 4.58824V9.35294C21 9.79412 20.8454 10.1689 20.5362 10.4774C20.2278 10.7866 19.8529 10.9412 19.4118 10.9412H14.6471ZM4.58824 9.35294H9.35294V4.58824H4.58824V9.35294ZM14.6471 9.35294H19.4118V4.58824H14.6471V9.35294ZM4.58824 19.4118H9.35294V14.6471H4.58824V19.4118Z" fill="#18484C"/>
<path fill-rule="evenodd" clip-rule="evenodd" d="M14.6 21C14.1556 21 13.778 20.8443 13.4672 20.5328C13.1557 20.222 13 19.8444 13 19.4V14.6C13 14.1556 13.1557 13.778 13.4672 13.4672C13.778 13.1557 14.1556 13 14.6 13H19.4C19.8444 13 20.222 13.1557 20.5328 13.4672C20.8443 13.778 21 14.1556 21 14.6V19.4C21 19.8444 20.8443 20.222 20.5328 20.5328C20.222 20.8443 19.8444 21 19.4 21H14.6ZM19.4 19.4H14.6V14.6H19.4V19.4Z" fill="#0FA76F"/>
</g>
</svg>
