<svg width="24" height="24" viewBox="0 0 24 24" fill="none" xmlns="http://www.w3.org/2000/svg">
<path fill-rule="evenodd" clip-rule="evenodd" d="M7.75 6.5C7.75 4.15279 9.65279 2.25 12 2.25C14.3472 2.25 16.25 4.15279 16.25 6.5C16.25 8.84721 14.3472 10.75 12 10.75C9.65279 10.75 7.75 8.84721 7.75 6.5ZM12 3.75C10.4812 3.75 9.25 4.98122 9.25 6.5C9.25 8.01879 10.4812 9.25 12 9.25C13.5188 9.25 14.75 8.01879 14.75 6.5C14.75 4.98122 13.5188 3.75 12 3.75Z" fill="#18484C"/>
<path fill-rule="evenodd" clip-rule="evenodd" d="M6.61514 3.19827C6.85211 3.538 6.7688 4.00551 6.42907 4.24248C5.71479 4.7407 5.25 5.5661 5.25 6.5C5.25 7.49944 5.78272 8.37522 6.58328 8.85761C6.93807 9.07139 7.05237 9.5323 6.83859 9.88708C6.62481 10.2419 6.1639 10.3562 5.80912 10.1424C4.57688 9.39988 3.75 8.04686 3.75 6.5C3.75 5.0551 4.47171 3.77893 5.57093 3.0122C5.91066 2.77523 6.37817 2.85853 6.61514 3.19827Z" fill="#0FA76F"/>
<path fill-rule="evenodd" clip-rule="evenodd" d="M17.3848 3.19827C17.6218 2.85853 18.0893 2.77523 18.429 3.0122C19.5282 3.77893 20.2499 5.0551 20.2499 6.5C20.2499 7.94484 19.5282 9.22109 18.429 9.9878C18.0893 10.2248 17.6218 10.1414 17.3848 9.80171C17.1478 9.46197 17.2311 8.99446 17.5709 8.7575C18.2851 8.25931 18.7499 7.43386 18.7499 6.5C18.7499 5.5661 18.2852 4.7407 17.5709 4.24248C17.2311 4.00551 17.1478 3.538 17.3848 3.19827Z" fill="#0FA76F"/>
<path fill-rule="evenodd" clip-rule="evenodd" d="M11.9726 13.25H12.0274C12.9361 13.25 13.6562 13.25 14.2397 13.2898C14.8357 13.3305 15.3436 13.4152 15.8178 13.6116C16.9816 14.0937 17.9063 15.0184 18.3884 16.1822C18.5848 16.6564 18.6695 17.1643 18.7102 17.7603C18.75 18.3438 18.75 19.0639 18.75 19.9726V21C18.75 21.4142 18.4142 21.75 18 21.75H6C5.58579 21.75 5.25 21.4142 5.25 21L5.25 19.9726C5.25 19.0639 5.24999 18.3438 5.2898 17.7603C5.33047 17.1643 5.41518 16.6564 5.61159 16.1822C6.09365 15.0184 7.01836 14.0937 8.18223 13.6116M11.9726 13.25C11.0639 13.25 10.3438 13.25 9.76033 13.2898L11.9726 13.25ZM9.76033 13.2898C9.16431 13.3305 8.65639 13.4152 8.18223 13.6116L9.76033 13.2898ZM9.86244 14.7863C9.34279 14.8218 9.0172 14.8893 8.75627 14.9974C7.95995 15.3272 7.32724 15.9599 6.99742 16.7563C6.88933 17.0172 6.82178 17.3428 6.78632 17.8624C6.75041 18.3888 6.75 19.0579 6.75 20V20.25H17.25V20C17.25 19.0579 17.2496 18.3888 17.2137 17.8624C17.1782 17.3428 17.1107 17.0172 17.0026 16.7563C16.6728 15.96 16.0401 15.3272 15.2438 14.9974C14.9828 14.8893 14.6572 14.8218 14.1376 14.7863C13.6112 14.7504 12.9421 14.75 12 14.75C11.0579 14.75 10.3888 14.7504 9.86244 14.7863Z" fill="#18484C"/>
<path fill-rule="evenodd" clip-rule="evenodd" d="M19.1477 14.0955C19.3358 13.7264 19.7874 13.5796 20.1565 13.7677C21.0502 14.2231 21.7769 14.9498 22.2323 15.8436C22.5131 16.3947 22.6347 16.9984 22.693 17.7117C22.75 18.4094 22.75 19.2749 22.75 20.367V21C22.75 21.4142 22.4142 21.75 22 21.75C21.5858 21.75 21.25 21.4142 21.25 21V20.4C21.25 19.2675 21.2494 18.4633 21.198 17.8339C21.1473 17.2133 21.0509 16.829 20.8958 16.5245M19.1477 14.0955C18.9597 14.4645 19.1064 14.9162 19.4755 15.1042L19.1477 14.0955ZM19.4755 15.1042C19.7901 15.2645 20.0745 15.474 20.3189 15.7228C20.5495 15.9577 20.7445 16.2276 20.8958 16.5245" fill="#0FA76F"/>
<path d="M20.3189 15.7228L19.1477 14.0955L19.4755 15.1042C19.7901 15.2645 20.0745 15.474 20.3189 15.7228Z" fill="#0FA76F"/>
<path fill-rule="evenodd" clip-rule="evenodd" d="M4.85229 14.0955C5.04034 14.4645 4.8936 14.9162 4.52453 15.1042C3.91302 15.4158 3.41582 15.913 3.10423 16.5245C2.94909 16.829 2.85271 17.2133 2.80201 17.8339C2.75058 18.4633 2.75 19.2675 2.75 20.4V21C2.75 21.4142 2.41421 21.75 2 21.75C1.58579 21.75 1.25 21.4142 1.25 21L1.25 20.367C1.24999 19.2749 1.24999 18.4094 1.30699 17.7117C1.36527 16.9984 1.48688 16.3947 1.76772 15.8436C2.22311 14.9498 2.94977 14.2231 3.84354 13.7677C4.2126 13.5796 4.66424 13.7264 4.85229 14.0955Z" fill="#0FA76F"/>
</svg>
