<svg width="22" height="21" viewBox="0 0 22 21" fill="none" xmlns="http://www.w3.org/2000/svg">
<path fill-rule="evenodd" clip-rule="evenodd" d="M0 4.36046C0 3.93661 0.343595 3.59302 0.767442 3.59302H4.86047C5.28431 3.59302 5.62791 3.93661 5.62791 4.36046V9.47674C5.62791 9.90059 5.28431 10.2442 4.86047 10.2442C2.31605 10.2442 0 8.1171 0 4.36046ZM1.57473 5.1279C1.79712 7.19177 2.91737 8.28101 4.09302 8.60464V5.1279H1.57473Z" fill="#0FA76F"/>
<path fill-rule="evenodd" clip-rule="evenodd" d="M16.3721 4.36046C16.3721 3.93661 16.7157 3.59302 17.1395 3.59302H21.2325C21.6564 3.59302 22 3.93661 22 4.36046C22 8.1171 19.6839 10.2442 17.1395 10.2442C16.7157 10.2442 16.3721 9.90059 16.3721 9.47674V4.36046ZM17.907 5.1279V8.60464C19.0826 8.28101 20.2029 7.19177 20.4253 5.1279H17.907Z" fill="#0FA76F"/>
<path fill-rule="evenodd" clip-rule="evenodd" d="M11 14.3372C11.4238 14.3372 11.7674 14.6808 11.7674 15.1047V17.1512C11.7674 17.575 11.4238 17.9186 11 17.9186C10.5761 17.9186 10.2325 17.575 10.2325 17.1512V15.1047C10.2325 14.6808 10.5761 14.3372 11 14.3372Z" fill="#18484C"/>
<path fill-rule="evenodd" clip-rule="evenodd" d="M7.62959 16.7491C7.76924 16.5221 8.01672 16.3837 8.2833 16.3837H13.5799C13.8379 16.3837 14.0785 16.5133 14.2206 16.7286L16.2453 19.7984C16.4008 20.0341 16.4143 20.3361 16.2804 20.5847C16.1466 20.8333 15.887 20.9884 15.6047 20.9884H6.39537C6.11738 20.9884 5.86112 20.838 5.72548 20.5954C5.58984 20.3527 5.59603 20.0557 5.74166 19.8189L7.62959 16.7491ZM8.71228 17.9186L7.76832 19.4535H14.1791L13.1668 17.9186H8.71228Z" fill="#18484C"/>
<path fill-rule="evenodd" clip-rule="evenodd" d="M4.09302 0.779069C4.09302 0.355223 4.43661 0.0116272 4.86046 0.0116272H17.1395C17.5634 0.0116272 17.907 0.355223 17.907 0.779069V7.76129C17.907 11.6545 14.8354 14.8488 11 14.8488C7.16456 14.8488 4.09302 11.6545 4.09302 7.76129V0.779069ZM5.6279 1.54651V7.76129C5.6279 10.8491 8.05389 13.314 11 13.314C13.9461 13.314 16.3721 10.8491 16.3721 7.76129V1.54651H5.6279Z" fill="#18484C"/>
</svg>
