<svg width="21" height="33" viewBox="0 0 21 33" fill="none" xmlns="http://www.w3.org/2000/svg">
<path d="M20.9257 7.02122C20.7089 3.58342 16.6828 0.842773 11.7462 0.842773C6.8096 0.842773 2.78159 3.58342 2.56664 7.02122H2.5562V11.538L0 10.4787C0.00405682 12.0734 0.00840288 13.6681 0.0130392 15.2628L2.5562 16.2966V26.1289C2.5562 29.7025 6.67034 32.5987 11.7462 32.5987C16.8213 32.5987 20.9361 29.7025 20.9361 26.1289V21.9248H14.3215V26.3365C14.3215 27.3369 13.1692 28.1477 11.7488 28.1477C10.3275 28.1477 9.17606 27.3369 9.17606 26.3365V21.1115C9.17606 21.1012 9.17606 21.0918 9.17606 21.0825C9.17606 21.0731 9.17606 21.0679 9.17606 21.0611C9.17606 21.0543 9.17606 21.0474 9.17606 21.0397C9.17606 21.0321 9.17606 21.021 9.17606 21.0107V19.2234C10.0224 19.3954 10.8845 19.4812 11.7488 19.4797C15.9586 19.4797 19.5046 17.4866 20.5924 14.7682H20.6017V14.7417C20.8219 14.1901 20.9355 13.6032 20.9372 13.0109V7.02207L20.9257 7.02122ZM11.7462 15.0706C11.386 15.0715 11.0278 15.0164 10.6852 14.9075L10.1325 14.6785L9.17513 14.2376V7.99172C9.17513 7.98233 9.17513 7.97293 9.17513 7.96268C9.17513 7.95243 9.17513 7.94389 9.17513 7.93364V7.16984C9.17513 6.16944 10.3274 5.35784 11.7478 5.35784C13.1691 5.35784 14.3206 6.16859 14.3206 7.16984V7.93278C14.3206 7.94303 14.3206 7.95158 14.3206 7.96183C14.3206 7.97207 14.3206 7.98147 14.3206 7.99087V13.2586C14.3197 14.2607 13.1683 15.0706 11.747 15.0706H11.7462Z" fill="url(#paint0_linear_457_28987)"/>
<defs>
<linearGradient id="paint0_linear_457_28987" x1="2.88932" y1="11.7668" x2="22.3809" y2="16.5045" gradientUnits="userSpaceOnUse">
<stop stop-color="#89C739"/>
<stop offset="0.414" stop-color="#6DBE4D"/>
<stop offset="1" stop-color="#1A987C"/>
</linearGradient>
</defs>
</svg>
